<svg width="426" height="255" viewBox="0 0 426 255" fill="none" xmlns="http://www.w3.org/2000/svg">
<path d="M317.636 53.4952C309.64 53.4952 301.824 55.8473 295.176 60.2541C288.528 64.6609 283.346 70.9245 280.286 78.2528C277.227 85.5811 276.426 93.6449 277.986 101.425C279.546 109.204 283.396 116.35 289.05 121.959C294.704 127.568 301.907 131.388 309.749 132.935C317.591 134.483 325.72 133.688 333.107 130.653C340.494 127.617 346.807 122.477 351.25 115.882C355.692 109.286 358.063 101.532 358.063 93.6004C358.063 82.9638 353.803 72.7629 346.222 65.2417C338.641 57.7205 328.358 53.4952 317.636 53.4952ZM122.24 53.4952C114.244 53.4952 106.428 55.8473 99.7799 60.2541C93.1317 64.6609 87.9501 70.9245 84.8903 78.2528C81.8305 85.5811 81.0299 93.6449 82.5898 101.425C84.1497 109.204 88 116.35 93.6538 121.959C99.3076 127.568 106.511 131.388 114.353 132.935C122.195 134.483 130.323 133.688 137.71 130.653C145.098 127.617 151.411 122.477 155.853 115.882C160.296 109.286 162.667 101.532 162.667 93.6004C162.667 82.9638 158.407 72.7629 150.826 65.2417C143.244 57.7205 132.962 53.4952 122.24 53.4952ZM176.142 0.0214844V133.706H209.831V30.8491L176.142 0.0214844ZM263.734 80.232L233.893 52.8802L209.831 103.6L236.782 133.679H263.734V113.626L250.258 100.258L263.734 80.232ZM93.0301 0.0214844L34.6485 57.9602V133.706H68.3374V71.5211L116.893 23.6301V0.0214844H93.0301ZM47.6443 23.6408L23.8195 47.2708L0 23.6408L23.8195 0.0214844L47.6443 23.6408Z" fill="black"/>
<path d="M351.325 254.021H324.374C324.374 254.021 283.947 253.797 283.947 207.328C283.947 160.859 324.374 160.539 324.374 160.539H351.325V180.591L337.849 193.96H324.374L317.636 200.644V214.012L324.374 220.696H337.849L351.325 237.407V254.021ZM398.49 254.021C398.49 254.021 358.063 254.021 358.063 207.232C358.063 160.442 398.49 160.442 398.49 160.442C398.49 160.442 425.441 160.442 425.441 187.179V200.548L411.965 213.916H391.752L398.49 220.6H411.965L425.441 237.311V254.021H398.49ZM142.453 227.284V254.021H108.764V160.442H142.453C142.453 160.442 176.142 160.442 176.142 193.863C176.142 227.284 142.453 227.284 142.453 227.284ZM78.4441 197.184V193.842H98.6414V160.442H68.3374C68.3374 160.442 34.6484 160.442 34.6484 187.179C34.6484 213.916 58.2146 217.237 58.2146 217.237V220.579H38.0012L38.1251 254H68.3374C68.3374 254 102.026 254 102.026 227.263C102.026 200.526 78.4441 197.184 78.4441 197.184ZM277.209 207.21C277.209 216.464 274.443 225.511 269.261 233.205C264.078 240.9 256.712 246.897 248.094 250.438C239.475 253.98 229.992 254.906 220.843 253.101C211.694 251.295 203.29 246.839 196.694 240.296C190.098 233.752 185.606 225.415 183.786 216.339C181.966 207.262 182.9 197.854 186.47 189.305C190.04 180.755 196.085 173.448 203.841 168.306C211.598 163.165 220.716 160.421 230.045 160.421C236.239 160.42 242.372 161.63 248.095 163.981C253.817 166.332 259.017 169.779 263.397 174.124C267.776 178.469 271.25 183.627 273.62 189.304C275.99 194.981 277.21 201.066 277.209 207.21ZM264.752 241.642H277.209V254.021H264.752V241.642Z" fill="black"/>
</svg>
